<svg width="40" height="40" viewBox="0 0 40 40" fill="none" xmlns="http://www.w3.org/2000/svg">
<path d="M20 37.3656C29.5907 37.3656 37.3656 29.5907 37.3656 20C37.3656 10.4092 29.5907 2.6344 20 2.6344C10.4092 2.6344 2.6344 10.4092 2.6344 20C2.6344 29.5907 10.4092 37.3656 20 37.3656Z" stroke="#403E56" stroke-width="2.5" stroke-miterlimit="22.9256"/>
<path d="M20 31.6452C26.4315 31.6452 31.6452 26.4315 31.6452 20C31.6452 13.5686 26.4315 8.35486 20 8.35486C13.5686 8.35486 8.35486 13.5686 8.35486 20C8.35486 26.4315 13.5686 31.6452 20 31.6452Z" stroke="#403E56" stroke-width="2" stroke-miterlimit="22.9256"/>
<path d="M20 20V13.2581M20 20L24.6989 24.6989L20 20Z" stroke="#E60013" stroke-width="2" stroke-miterlimit="22.9256" stroke-linecap="round" stroke-linejoin="round"/>
</svg>
