<svg width="40" height="40" viewBox="0 0 40 40" fill="none" xmlns="http://www.w3.org/2000/svg">
<path d="M20 14.7929C17.1328 14.7929 14.793 17.1328 14.793 19.9999C14.793 22.8671 17.1328 25.207 20 25.207C22.8672 25.207 25.207 22.8671 25.207 19.9999C25.207 17.1328 22.8672 14.7929 20 14.7929ZM35.6172 19.9999C35.6172 17.8437 35.6367 15.707 35.5157 13.5546C35.3946 11.0546 34.8242 8.83588 32.9961 7.00775C31.1641 5.17572 28.9492 4.60932 26.4492 4.48822C24.293 4.36713 22.1563 4.38666 20.0039 4.38666C17.8477 4.38666 15.7109 4.36713 13.5586 4.48822C11.0586 4.60932 8.83985 5.17963 7.01172 7.00775C5.17969 8.83978 4.61328 11.0546 4.49219 13.5546C4.37109 15.7109 4.39063 17.8476 4.39063 19.9999C4.39063 22.1523 4.37109 24.2929 4.49219 26.4453C4.61328 28.9453 5.18359 31.164 7.01172 32.9921C8.84375 34.8242 11.0586 35.3906 13.5586 35.5117C15.7149 35.6327 17.8516 35.6132 20.0039 35.6132C22.1602 35.6132 24.2969 35.6327 26.4492 35.5117C28.9492 35.3906 31.168 34.8202 32.9961 32.9921C34.8281 31.1601 35.3946 28.9453 35.5157 26.4453C35.6407 24.2929 35.6172 22.1562 35.6172 19.9999V19.9999ZM20 28.0117C15.5664 28.0117 11.9883 24.4335 11.9883 19.9999C11.9883 15.5663 15.5664 11.9882 20 11.9882C24.4336 11.9882 28.0117 15.5663 28.0117 19.9999C28.0117 24.4335 24.4336 28.0117 20 28.0117ZM28.3399 13.5312C27.3047 13.5312 26.4688 12.6953 26.4688 11.6601C26.4688 10.6249 27.3047 9.789 28.3399 9.789C29.375 9.789 30.211 10.6249 30.211 11.6601C30.2113 11.9059 30.1631 12.1493 30.0692 12.3765C29.9752 12.6036 29.8374 12.81 29.6636 12.9838C29.4898 13.1577 29.2834 13.2955 29.0563 13.3894C28.8291 13.4833 28.5857 13.5315 28.3399 13.5312V13.5312Z" fill="#403E56"/>
</svg>
