<svg width="40" height="40" viewBox="0 0 40 40" fill="none" xmlns="http://www.w3.org/2000/svg">
<g clip-path="url(#clip0)">
<path d="M28.4843 19.8805L31.3522 19.4025C30.8742 16.7736 29.6792 14.3836 27.7673 12.2327C25.6163 10.0818 23.2264 8.88679 20.3585 8.4088L19.8805 11.5157C22.0314 11.7547 23.9434 12.9497 25.6163 14.3836C27.0503 15.8176 28.0063 17.7296 28.4843 19.8805ZM33.0251 7.21384C29.6792 3.86792 25.3773 1.71698 20.5975 1L20.1195 3.86792C24.1824 4.34591 27.7673 6.25786 30.8742 9.12579C33.7421 11.9937 35.4151 15.3396 36.1321 19.1635L39 18.6855C38.283 14.3836 36.1321 10.3208 33.0251 7.21384Z" fill="#E60013"/>
<path d="M29.9182 26.0943C28.7233 24.8994 27.0503 24.8994 25.8553 26.0943C24.8994 27.0503 23.9434 28.0063 22.9874 28.9623C22.7484 29.2013 22.5094 29.2013 22.2704 29.2013C21.5534 28.9623 21.0755 28.4843 20.3585 28.2453C17.7295 26.5723 15.3396 24.1824 13.4277 21.7925C12.4717 20.5975 11.5157 19.1635 10.7987 17.7296C10.5597 17.4906 10.7987 17.2516 11.0377 17.0126C11.9937 16.0566 12.9497 15.1006 13.9056 14.1447C15.1006 12.9497 15.1006 11.2767 13.9056 10.0818C13.1887 9.36478 12.2327 8.6478 11.5157 7.93082C10.7987 7.21384 10.0817 6.49685 9.12577 5.54088C8.1698 4.34591 6.49684 4.34591 5.30187 5.54088C4.3459 6.49685 3.38992 7.45283 2.43395 8.4088C1.47797 9.12579 1.23898 10.3208 0.999986 11.5157C0.760992 13.4277 1.47797 15.3396 1.95596 17.0126C3.38992 20.8365 5.54087 24.1824 8.1698 27.2893C11.7547 31.3522 15.8176 34.6981 20.5975 37.0881C22.7484 38.044 25.1384 39 27.5283 39C29.2012 39 30.6352 38.761 31.8302 37.327C32.5472 36.3711 33.5031 35.6541 34.4591 34.6981C35.6541 33.5031 35.6541 31.8302 34.4591 30.6352C33.0251 29.2013 31.3522 27.7673 29.9182 26.0943Z" fill="#403E56"/>
</g>
<defs>
<clipPath id="clip0">
<rect width="38" height="38" fill="white" transform="translate(1 1)"/>
</clipPath>
</defs>
</svg>
