<svg width="40" height="40" viewBox="0 0 40 40" fill="none" xmlns="http://www.w3.org/2000/svg">
<path d="M28.5806 23.6774C25.1075 22.043 24.6989 21.8387 24.2903 22.4516C23.8817 22.8602 23.0645 23.8817 22.8602 24.2903C22.6559 24.6989 22.2473 24.6989 21.8387 24.4946C21.4301 24.2903 19.7957 23.6774 17.957 22.2473C16.7312 20.8172 15.7097 19.1828 15.5054 18.7742C14.8925 17.957 15.914 17.7527 16.7312 16.1183C16.9355 15.7097 16.7312 15.5054 16.7312 15.3011C16.7312 15.0968 15.7097 12.8495 15.3011 11.8279C14.8925 11.0107 14.4839 11.0107 14.2796 11.0107C13.4624 11.0107 12.6452 11.0107 12.0322 11.6236C9.58063 14.4839 10.1935 17.3441 12.4409 20.4086C16.7312 25.9247 18.9785 27.1505 23.2688 28.5806C24.4946 28.9892 25.5161 28.9892 26.3333 28.7849C27.1505 28.5806 29.1935 27.5591 29.6021 26.5376C30.0107 25.5161 30.0107 24.4946 29.8064 24.2903C29.3978 23.8817 29.1935 23.8817 28.5806 23.6774Z" fill="#E60013"/>
<path d="M35.7312 19.7957C35.7312 31.8495 22.4516 39.4086 12.0323 33.2796L11.4194 32.871L5.49462 34.5054L7.12903 28.5807L6.72043 27.9677C0.182796 17.7527 7.74194 4.06453 20 4.06453C24.2903 4.06453 28.172 5.69893 31.0323 8.55915C34.0968 11.6237 35.7312 15.5054 35.7312 19.7957ZM33.4839 6.51614C21.2258 -5.33332 1.2043 3.24732 1.2043 19.7957C1.2043 23.0645 2.02151 26.3333 3.65591 29.1936L1 39L11.0108 36.3441C23.4731 43.086 39 34.0968 39 19.7957C39 14.6882 36.957 9.98926 33.4839 6.51614Z" fill="#403E56"/>
</svg>
