<svg width="103" height="36" viewBox="0 0 103 36" fill="none" xmlns="http://www.w3.org/2000/svg">
<g clip-path="url(#clip0)">
<path d="M12.6 15.8L15 14.5C16.2 13.8 17.6 13.6 18.9 14C20.2 14.3 21.3 15.2 22 16.4C22.7 17.6 22.9 19.1 22.5 20.3C22.2 21.6 21.3 22.7 20.1 23.4C18.5 24.3 14.2 27.1 12.5 27.4V23.5L18.2 20.2C18.5 20 18.8 19.7 18.9 19.3C19 18.9 19 18.5 18.8 18.2C18.6 17.9 18.3 17.6 17.9 17.5C17.5 17.4 17.1 17.4 16.8 17.6L12.6 20V15.8V15.8Z" fill="#E60013"/>
<path d="M12.6 8.30006C13.6 8.00006 14.6 7.90006 15.6 8.20006C16.9 8.50006 18 9.40006 18.7 10.6001C19.4 11.8001 19.6 13.3001 19.2 14.5001C18.9 15.8001 18 16.9001 16.8 17.6001L12.6 20.0001V15.8001L15 14.5001C15.3 14.3001 15.6 14.0001 15.7 13.6001C15.8 13.2001 15.8 12.8001 15.6 12.5001C15.3 12.1001 15 11.9001 14.6 11.8001C14.3 11.7001 13.9 11.7001 13.5 11.9001L12.6 12.4001V8.30006Z" fill="#E60013"/>
<path d="M6 24C7.7 24.9 12 27.3 12.6 27.4V23.5L6 19.7V24ZM12.6 15.8L6 12.1V16.4L12.6 20.2V15.8Z" fill="#E60013"/>
<path fill-rule="evenodd" clip-rule="evenodd" d="M6.6 14.5L9.3 14.3L12.6 12.4L14.5 9.90005L12.6 8.30005L6 12.1L6.6 14.5Z" fill="#E60013"/>
<path d="M92.1 16.8C95.5 16.8 95.5 22.1 92.1 22.1C90.7 22.1 89.5 21.1 89.5 19.4C89.5 17.7 90.6 16.8 92.1 16.8ZM94.7 16.3C94.2 15.4 93.1 14.9 91.9 14.9C89.4 14.9 87.4 16.5 87.4 19.5C87.4 22.6 89.3 24.2 91.9 24.1C92.9 24.1 94.2 23.6 94.7 22.6L94.8 23.9H96.8V15H94.7V16.3ZM81.6 12.8V15H80V16.9H81.6V20.7C81.6 22.9 82.8 24 84.7 23.9C85.4 23.9 85.9 23.8 86.5 23.5L85.9 21.7C85.6 21.9 85.2 22 84.9 22C84.2 22 83.8 21.6 83.8 20.8V16.9H86.2V15.1H83.8V12.6L81.6 12.8ZM79 16C78 15.1 77 14.9 75.6 14.9C74 14.9 71.9 15.6 71.9 17.6C71.9 19.6 73.9 20.2 75.5 20.3C76.7 20.4 77.2 20.6 77.2 21.2C77.2 21.8 76.4 22.3 75.6 22.2C74.6 22.2 73.2 21.7 72.6 21L71.5 22.5C72.8 23.8 74.2 24.1 75.5 24.1C78 24.1 79.3 22.8 79.3 21.2C79.3 18.9 77.2 18.5 75.6 18.4C74.5 18.3 74 18 74 17.4C74 16.9 74.6 16.5 75.6 16.5C76.4 16.5 77.1 16.7 77.8 17.3L79 16ZM70.2 23.8V19.2C70.2 16.5 68.6 14.9 66.5 14.9C65.4 14.9 64.5 15.3 63.6 16.2L63.5 15H61.6V23.7H63.7V19.2C63.7 17.9 64.6 16.8 65.9 16.8C67.3 16.8 68 17.8 68 19.1V23.7H70.2V23.8ZM57.3 12.6C57.3 14.3 59.8 14.3 59.8 12.6C59.9 10.9 57.3 10.9 57.3 12.6ZM59.7 15V23.8H57.5V15H59.7Z" fill="#403E56"/>
<path d="M51.3 21.8C49.9 21.8 48.9 20.8 48.9 19.4C48.9 18 49.9 17 51.3 17C52.7 17 53.7 18 53.7 19.4C53.7 20.8 52.7 21.8 51.3 21.8ZM51.3 24.1C53.9 24.1 56 22.1 56 19.4C56 16.8 53.9 14.7 51.3 14.7C48.7 14.7 46.6 16.7 46.6 19.4C46.6 22 48.7 24.1 51.3 24.1ZM41.5 17H42.7C43.2 17 43.6 17.4 43.6 18C43.6 18.6 43.2 19 42.7 19H41.5V17ZM46.6 23.4L44.4 20.5C45.3 20 45.9 19.1 45.9 18C45.9 16.2 44.5 14.9 42.7 14.9H41.5H39.6C39.4 14.9 39.2 15 39.2 15.3V23.6C39.2 23.8 39.3 24 39.6 24H41.2C41.4 24 41.6 23.9 41.6 23.6V21H42.2L44.2 23.7C44.3 23.9 44.4 23.9 44.6 23.9H46.4C46.7 23.9 46.8 23.7 46.6 23.4ZM35.1 21.8H32.8V20H35.1C35.7 20 36 20.4 36 20.9C36 21.4 35.7 21.8 35.1 21.8ZM34.3 17C34.7 17 34.9 17.3 34.9 17.6C34.9 17.8 34.8 18 34.7 18.1H32.8V17H34.3ZM36.8 18.5C37 18.2 37.2 17.8 37.2 17.4C37.2 16 36 15 34.4 15H32.8H30.9C30.7 15 30.5 15.1 30.5 15.4V23.7C30.5 23.9 30.6 24.1 30.9 24.1H31H35.4C37.1 24.1 38.3 22.9 38.3 21.2C38.3 19.9 37.7 19 36.8 18.5Z" fill="#E60013"/>
</g>
<defs>
<clipPath id="clip0">
<rect width="90.8" height="19.4" fill="white" transform="translate(6 8)"/>
</clipPath>
</defs>
</svg>
